<?xml version="1.0" encoding="utf-8"?>
<!-- Generator: Adobe Illustrator 16.0.0, SVG Export Plug-In . SVG Version: 6.00 Build 0)  -->
<!DOCTYPE svg PUBLIC "-//W3C//DTD SVG 1.1//EN" "http://www.w3.org/Graphics/SVG/1.1/DTD/svg11.dtd">
<svg version="1.1" id="Layer_1" xmlns="http://www.w3.org/2000/svg" xmlns:xlink="http://www.w3.org/1999/xlink" x="0px" y="0px"
	 width="32px" height="32px" viewBox="0 0 96 96" enable-background="new 0 0 96 96" xml:space="preserve" fill="#9a9a9a">
<g>
	<path d="M91.282,1.656H4.718c-1.691,0-3.062,1.37-3.062,3.062v86.564c0,1.691,1.37,3.062,3.062,3.062h86.564
		c1.691,0,3.062-1.37,3.062-3.062V4.718C94.344,3.026,92.974,1.656,91.282,1.656z M44.938,86.662L48,67.537l3.063,19.125H44.938z
		 M86.663,86.662h-5.002c-0.037-0.068-0.064-0.139-0.104-0.206L69.712,66.655c-0.717-1.2-1.782-2.052-2.983-2.544l-8.117-3.738
		l-3.9-3.289l-6.702,6.665l-6.72-6.665l-3.9,3.289l-8.117,3.738c-1.201,0.492-2.267,1.344-2.983,2.544L14.443,86.456
		c-0.04,0.067-0.067,0.138-0.104,0.206H9.337V9.337h77.326V86.662z"/>
	<path d="M47.955,57.888v0.002c0.009,0,0.017-0.001,0.024-0.001c0.004,0,0.01,0.001,0.015,0.001c0.002,0,0.004,0,0.006,0
		s0.004,0,0.006,0c0.005,0,0.01-0.001,0.015-0.001c0.008,0,0.016,0.001,0.023,0.001v-0.002c9.464,0.146,15.216-8.139,15.363-21.794
		c0.098-9.474-5.778-14.891-15.347-15.145v-0.005c-0.014,0-0.026,0.002-0.04,0.002v-0.002c-0.007,0-0.014,0-0.021,0.002
		c-0.007-0.002-0.014-0.002-0.021-0.002v0.002c-0.014,0-0.026-0.002-0.04-0.002v0.005c-9.568,0.254-15.444,5.671-15.348,15.145
		C32.739,49.749,38.492,58.033,47.955,57.888z"/>
</g>
</svg>
