<?xml version="1.0" encoding="utf-8"?>
<!-- Generator: Adobe Illustrator 18.1.0, SVG Export Plug-In . SVG Version: 6.00 Build 0)  -->
<svg version="1.1" id="Capa_1" xmlns="http://www.w3.org/2000/svg" xmlns:xlink="http://www.w3.org/1999/xlink" x="0px" y="0px"
	 width="26px" height="26px" viewBox="0 0 1000 1000" enable-background="new 0 0 1000 1000" xml:space="preserve" fill="#ffffff">
<g>
	<path d="M872.7,260.9H752.3l-17-98.9c-4.1-24-24.9-41.5-49.3-41.5H319c-24.1,0-44.8,17.2-49.2,40.9l-18.5,99.6H127.3
		c-27.6,0-50,22.4-50,50v439.9c0,27.6,22.4,50,50,50h745.4c27.6,0,50-22.4,50-50V310.9C922.7,283.3,900.3,260.9,872.7,260.9z
		 M500,710.5c-99.2,0-179.6-80.4-179.6-179.6c0-99.2,80.4-179.6,179.6-179.6s179.6,80.4,179.6,179.6
		C679.6,630.1,599.2,710.5,500,710.5z"/>
	<circle cx="500" cy="530.9" r="104.7"/>
</g>
</svg>
